<svg width="187" height="189" xmlns="http://www.w3.org/2000/svg" xmlns:xlink="http://www.w3.org/1999/xlink" xml:space="preserve" overflow="hidden"><defs><linearGradient x1="80.5712" y1="14.3154" x2="80.5712" y2="128.136" gradientUnits="userSpaceOnUse" spreadMethod="pad" id="fill0"><stop offset="0" stop-color="#97D9F6"/><stop offset="0.92024" stop-color="#0F80CC"/><stop offset="1" stop-color="#0F80CC"/></linearGradient></defs><g transform="translate(-547 -297)"><path d="M133.97 7.83294 22.8776 7.83294C15.4228 7.83294 9.37251 13.9372 9.37251 21.338L9.37251 143.856C9.37251 151.311 15.4768 157.361 22.8776 157.361L96.075 157.361C95.2647 120.951 107.689 50.2929 133.997 7.7249Z" fill="#0F80CC" transform="matrix(1.00001 0 0 1 554.776 303.609)"/><path d="M129.919 11.8034 22.8776 11.8034C17.5881 11.8183 13.3038 16.1025 13.289 21.392L13.289 134.97C37.5441 125.651 73.9267 117.629 99.1002 118.007 106.861 81.9219 117.168 46.4318 129.946 11.8034Z" fill="url(#fill0)" transform="matrix(1.00001 0 0 1 554.776 303.609)"/><path d="M159.9 3.83544C152.283-2.91709 143.073-0.216081 133.97 7.83294L129.919 11.7764C114.361 28.2526 100.208 58.8281 95.4538 82.1918 97.1475 85.8921 98.486 89.7448 99.4513 93.6981L100.046 96.3991 100.64 99.1542C100.64 99.1542 100.505 98.614 99.9375 96.9934L99.5593 95.913C99.4834 95.7128 99.4024 95.5147 99.3162 95.3187 97.7673 92.0798 96.0822 88.9078 94.2654 85.8112 93.2827 88.6832 92.3551 91.5738 91.4833 94.4814 95.0486 101.018 97.2094 112.2 97.2094 112.2 97.2094 112.2 97.0204 111.471 96.129 108.959 95.3187 106.717 91.3753 99.7754 90.4569 98.1548 88.8363 104.097 88.2151 108.095 88.7823 109.067 89.8627 110.958 90.9431 114.469 91.8885 117.818 93.3471 123.758 94.5368 129.76 95.4538 135.807L95.5888 137.482C95.3089 144.236 95.4442 151.001 95.994 157.739 96.6963 166.193 98.0198 173.459 99.6944 177.348L100.829 176.727C98.3979 169.056 97.3715 159.036 97.8037 147.448 98.4789 129.757 102.53 108.419 110.066 86.1893 122.842 52.3456 140.453 25.3895 156.605 12.5327 141.884 25.8217 121.978 68.8218 116.036 84.7308 109.364 102.557 104.637 119.304 101.774 135.321 106.69 120.303 122.572 113.821 122.572 113.821 122.572 113.821 130.405 104.205 139.48 90.4569L122.059 95.1027 116.441 97.5876C116.441 97.5876 130.756 88.8633 143.1 84.8928 160.035 58.2338 178.483 20.3386 159.9 3.80843" fill="#003B57" transform="matrix(1.00001 0 0 1 554.776 303.609)"/></g></svg>